<?xml version="1.0" encoding="UTF-8" standalone="no"?>
<!-- Created with Inkscape (http://www.inkscape.org/) -->
<svg xmlns:svg="http://www.w3.org/2000/svg" xmlns="http://www.w3.org/2000/svg" version="1.0" width="738.60211" height="242.80267" id="svg13225">
  <defs id="defs13227"/>
  <g transform="translate(105.52792,-439.53227)" id="layer1">
    <path d="M -105.52792,682.33495 L 633.0742,682.33495 L 633.0742,439.53227 L -105.52792,439.53227 L -105.52792,682.33495 z" id="path585" style="fill:#ffffff;fill-opacity:1;fill-rule:nonzero;stroke:none"/>
    <path d="M -31.140945,591.48388 C -42.20942,591.48388 -50.441465,579.64765 -50.441465,560.04856 C -50.441465,543.81906 -42.998502,529.08242 -31.930027,529.08242 C -26.150534,529.08242 -22.077165,531.74824 -18.408999,538.03957 C -21.607981,534.24344 -26.982269,533.0065 -31.35421,533.0065 C -39.458296,533.0065 -45.941565,544.99202 -45.941565,560.62437 C -45.941565,574.65724 -40.012786,589.22327 -31.140945,591.48388 M -16.212366,637.35727 L -14.911447,641.21738 C -21.544001,646.10115 -32.292578,648.98024 -44.42738,648.98024 C -61.339328,648.98024 -77.995357,639.89513 -82.11138,631.23655 C -74.327192,638.25299 -61.616573,644.39503 -50.356159,644.39503 L -44.789932,644.39503 C -33.060334,644.39503 -22.866247,641.94248 -16.212366,637.35727 M 113.55964,645.39738 C 125.26791,645.39738 135.37669,642.21972 142.03057,637.67717 L 142.03057,642.45432 C 135.35537,646.80493 125.26791,650.02524 113.94352,650.02524 C 99.121573,650.02524 80.26891,639.8738 80.012991,632.51615 C 86.965444,638.29564 95.751979,645.39738 113.55964,645.39738" id="path587" style="fill:#d6b046;fill-opacity:1;fill-rule:nonzero;stroke:none"/>
    <path d="M 8.8889741,642.34768 L 47.042157,642.34768 L 47.084811,458.38493 L 52.26716,458.29963 L 52.26716,647.06085 L 8.8676476,647.06085 L 8.8889741,642.34768 M 136.99751,588.26357 C 132.62557,586.66408 128.40291,584.85133 128.42424,577.17377 L 128.44557,506.49761 L 123.34852,506.49761 L 123.3272,577.30173 L 123.3272,578.09081 C 123.3272,583.80633 127.46455,588.75408 132.88149,588.75408 C 133.62792,588.75408 136.27241,588.43418 136.99751,588.26357 M 168.43283,642.47564 L 205.94622,642.47564 L 206.09551,505.11139 L 210.76602,504.9621 L 210.5101,646.93289 L 168.41151,647.06085 L 168.43283,642.47564" id="path589" style="fill:#d6b046;fill-opacity:1;fill-rule:nonzero;stroke:none"/>
    <path d="M 198.07673,487.30372 L 150.6465,487.30372 L 150.6465,570.86111 C 150.6465,593.65919 141.90262,596.45296 132.96679,596.45296 C 122.09026,596.45296 115.20179,590.43888 115.20179,572.97244 L 115.20179,487.30372 L 68.560638,487.30372 L 68.560638,587.38918 C 68.560638,632.34553 107.39627,637.3786 116.92923,637.3786 C 132.75353,637.3786 141.30547,628.25084 150.6465,619.65624 L 150.6465,634.75543 L 198.07673,634.75543 L 198.07673,487.30372" id="path591" style="fill:#e20014;fill-opacity:1;fill-rule:nonzero;stroke:none"/>
    <path d="M 485.81443,631.96166 C 503.7074,646.33575 525.37516,650.21718 544.73966,650.21718 C 592.87367,650.21718 626.4843,611.08297 626.4843,569.02703 C 626.4843,542.43283 619.85174,526.62987 612.94194,513.9619 C 624.03175,524.09201 631.83726,541.36651 632.17849,568.98438 C 631.64532,618.88849 593.64142,654.69575 544.63303,655.0583 C 523.43445,655.22891 498.86627,650.00391 485.81443,631.96166" id="path593" style="fill:#d6b046;fill-opacity:1;fill-rule:nonzero;stroke:none"/>
    <path d="M 389.82366,634.75543 L 440.28226,634.75543 L 440.28226,441.3237 L 389.82366,441.3237 L 389.82366,634.75543 z" id="path595" style="fill:#e20014;fill-opacity:1;fill-rule:nonzero;stroke:none"/>
    <path d="M 448.21574,458.9181 L 453.22747,458.9181 L 453.22747,649.59871 L 409.84929,649.59871 L 409.84929,644.58697 L 448.21574,644.58697 L 448.21574,458.9181 M 542.26578,597.39133 C 533.37262,595.04541 523.28516,586.47214 523.28516,563.52478 C 523.28516,546.25029 529.76843,532.23875 542.39374,532.23875 C 550.0713,532.23875 557.27967,537.25048 561.82222,544.97069 C 558.23936,534.88324 551.13763,527.90946 540.68762,527.90946 C 525.11925,527.90946 517.12179,543.49916 517.12179,562.69305 C 517.12179,581.88694 522.60271,597.45531 540.68762,597.45531 C 541.34874,597.45531 541.62599,597.43399 542.26578,597.39133 M 285.38759,560.85897 C 285.38759,546.61284 289.67422,534.66997 299.35647,534.66997 C 303.62178,534.66997 307.92974,535.50171 313.02679,541.55845 C 309.40127,531.47099 303.4725,529.76487 297.47974,529.76487 C 286.41126,529.76487 279.67208,541.21722 279.67208,560.62437 C 279.67208,579.83959 286.62453,593.16868 299.35647,593.16868 C 300.0176,593.16868 285.38759,587.6451 285.38759,560.85897" id="path597" style="fill:#d6b046;fill-opacity:1;fill-rule:nonzero;stroke:none"/>
    <path d="M 283.1483,637.74115 C 293.81157,644.33105 301.12658,644.6083 315.94852,644.6083 C 354.54956,644.6083 377.8808,595.89847 377.8808,563.80203 C 377.8808,537.20783 373.87141,529.5516 368.5611,515.49741 C 378.56325,526.88579 383.23376,536.1415 383.59631,563.75938 C 383.59631,608.77971 351.88375,649.49207 315.84189,649.49207 C 303.92035,649.49207 295.70964,648.95891 288.50126,645.26942 L 288.50126,682.31362 L 244.80318,682.31362 L 244.80318,677.96301 L 283.1483,677.96301 L 283.1483,637.74115" id="path599" style="fill:#d6b046;fill-opacity:1;fill-rule:nonzero;stroke:none"/>
    <path d="M -58.609531,562.7357 C -58.609531,540.74804 -49.375138,519.52813 -31.439516,519.52813 C -16.55359,519.52813 -4.7386861,536.35477 -4.7386861,562.7357 C -4.7386861,584.74469 -16.468284,601.25144 -31.35421,601.25144 C -46.240136,601.25144 -58.609531,584.74469 -58.609531,562.7357 M -7.3831773,619.27236 C -17.214713,627.39778 -30.991659,637.27197 -43.87289,637.27197 C -74.305865,637.27197 -103.69384,608.80103 -103.69384,561.45611 C -103.69384,521.17027 -77.974031,484.85117 -44.278095,484.85117 C -30.202577,484.85117 -17.705224,490.35342 -7.3831773,499.95036 L -7.3831773,441.3237 L 39.833786,441.3237 L 39.833786,634.75543 L -7.3831773,634.75543 L -7.3831773,619.27236" id="path601" style="fill:#000000;fill-opacity:1;fill-rule:evenodd;stroke:none"/>
    <path d="M 274.83095,503.38394 C 284.1933,491.41975 296.86127,485.38433 310.85148,485.38433 C 344.35548,485.38433 369.84069,519.65609 369.84069,561.88264 C 369.84069,601.59266 345.7417,637.82646 309.93444,637.82646 C 299.74035,637.82646 286.07004,632.77207 274.83095,621.469 L 274.83095,669.94423 L 227.76327,669.94423 L 227.76327,487.30372 L 274.83095,487.30372 L 274.83095,503.38394 z M 272.42105,561.83999 C 272.42105,533.43303 284.36391,521.95935 299.10056,521.95935 C 313.85852,521.95935 325.80139,537.71967 325.80139,561.83999 C 325.80139,583.87031 315.43669,601.72062 299.10056,601.72062 C 283.21228,601.72062 272.42105,583.87031 272.42105,561.83999 M 509.59352,562.69305 C 509.59352,538.93528 521.57904,519.67741 540.83691,519.67741 C 560.49998,519.67741 570.45947,538.93528 570.45947,562.69305 C 570.45947,586.47214 563.20845,605.73001 540.83691,605.73001 C 518.48669,605.73001 509.59352,586.47214 509.59352,562.69305 M 462.20595,563.18356 C 462.20595,510.20843 497.28811,483.23035 540.62364,483.23035 C 586.45438,483.23035 619.04134,519.01629 619.04134,563.18356 C 619.04134,607.30817 590.61306,642.5183 541.62599,642.5183 C 494.49433,642.5183 462.20595,607.30817 462.20595,563.18356" id="path603" style="fill:#e20014;fill-opacity:1;fill-rule:evenodd;stroke:none"/>
  </g>
</svg>